<?xml version="1.0" standalone="no"?>
<!DOCTYPE svg PUBLIC "-//W3C//DTD SVG 20010904//EN"
 "http://www.w3.org/TR/2001/REC-SVG-20010904/DTD/svg10.dtd">
<svg version="1.0" xmlns="http://www.w3.org/2000/svg"
 width="420.000000pt" height="420.000000pt" viewBox="0 0 420.000000 420.000000"
 preserveAspectRatio="xMidYMid meet">
<metadata>
Created by potrace 1.14, written by Peter Selinger 2001-2017
</metadata>
<g transform="translate(0.000000,420.000000) scale(0.100000,-0.100000)"
fill="#000000" stroke="none">
<path d="M480 2122 l0 -2081 326 1 c355 0 415 7 510 55 150 76 262 240 277
408 2 21 9 41 15 43 6 2 24 -24 41 -57 86 -175 216 -303 396 -393 147 -74 267
-97 475 -93 80 2 159 6 175 9 158 33 347 113 462 197 83 60 220 202 275 285
142 213 234 466 263 720 3 27 10 81 14 119 9 72 7 543 -2 581 -3 12 -8 45 -12
74 -4 29 -9 62 -11 74 -2 12 -7 35 -10 51 -47 262 -168 520 -336 712 -60 68
-183 173 -238 202 -19 10 -60 32 -91 49 -72 39 -214 87 -313 105 -97 18 -299
19 -393 1 -218 -41 -411 -155 -533 -314 -19 -25 -37 -47 -40 -50 -14 -13 -48
-71 -82 -140 -20 -41 -38 -70 -39 -65 -1 6 -2 129 -4 275 -2 288 -6 333 -36
459 -60 245 -210 471 -417 625 -126 95 -299 175 -437 201 -22 5 -47 10 -55 11
-8 2 -52 6 -97 10 l-83 6 0 -2080z m1774 178 c246 -117 354 -464 292 -939 -22
-162 -112 -339 -213 -416 -128 -98 -328 -110 -473 -28 -132 75 -236 261 -268
481 -4 26 -7 128 -6 227 1 149 5 196 23 270 31 129 91 246 160 315 96 97 189
132 333 126 71 -4 98 -10 152 -36z"/>
</g>
</svg>
