<?xml version="1.0" standalone="no"?>
<!DOCTYPE svg PUBLIC "-//W3C//DTD SVG 20010904//EN"
 "http://www.w3.org/TR/2001/REC-SVG-20010904/DTD/svg10.dtd">
<svg version="1.0" xmlns="http://www.w3.org/2000/svg"
 width="142.000000pt" height="142.000000pt" viewBox="0 0 142.000000 142.000000"
 preserveAspectRatio="xMidYMid meet">
<metadata>
Created by potrace 1.14, written by Peter Selinger 2001-2017
</metadata>
<g transform="translate(0.000000,142.000000) scale(0.100000,-0.100000)"
fill="#000000" stroke="none">
<path d="M844 928 c1 -490 -2 -539 -34 -584 -34 -47 -119 -58 -171 -22 -27 18
-59 82 -59 118 0 19 -7 20 -191 20 l-191 0 6 -57 c14 -134 44 -201 128 -278
86 -80 195 -116 353 -117 114 -1 192 15 281 58 123 60 213 172 239 295 8 39
12 172 11 416 l-1 358 -32 65 c-58 118 -169 201 -289 215 l-50 7 0 -494z"/>
</g>
</svg>
